<?xml version="1.0" encoding="utf-8"?>
<!-- Generated by IcoMoon.io -->
<!DOCTYPE svg PUBLIC "-//W3C//DTD SVG 1.1//EN" "http://www.w3.org/Graphics/SVG/1.1/DTD/svg11.dtd">
<svg version="1.1" xmlns="http://www.w3.org/2000/svg" xmlns:xlink="http://www.w3.org/1999/xlink" width="16" height="16" viewBox="0 0 16 16">
<path d="M0.849 7.239c0.053 0.027 0.117 0.040 0.196 0.031 0.845-0.101 6.047-0.153 6.895-0.203 0.517-0.031 0.342-0.673 0.346-0.994 0.004-0.353 0.198-0.97-0.399-0.97-0.865 0-6.081 0.004-6.946 0.051-0.479 0.026-0.365 0.532-0.334 0.862 0.035 0.381-0.193 1.003 0.243 1.223zM7.55 5.866c0 0-0.090 0.252 0.015 0.46-0.599 0.036-5.551 0.079-6.148 0.14 0.006-0.358-0.086-0.568-0.086-0.568 0.622-0.025 5.597-0.032 6.219-0.033z" fill="#444444"></path>
<path d="M7.982 7.787c-0.864-0.047-6.081-0.051-6.946-0.051-0.732-0-0.676 1.927-0.053 1.964 0.849 0.050 6.051 0.102 6.895 0.203 0.078 0.009 0.143-0.004 0.196-0.031 0.176-0.089 0.232-0.211 0.242-0.35 0.013-0.186-0.056-0.403-0.036-0.614 0.025-0.263 0.196-0.674 0.024-0.915-0.056-0.111-0.163-0.198-0.321-0.206zM7.506 9.101c-0.597-0.062-5.549-0.104-6.148-0.14 0.105-0.208 0.015-0.46 0.015-0.46 0.622 0.001 5.597 0.008 6.219 0.033 0 0-0.092 0.209-0.086 0.568z" fill="#444444"></path>
<path d="M8.159 10.485c-0.061-0.069-0.152-0.115-0.272-0.115-0.865 0-6.082 0.004-6.947 0.051-0.648 0.036-0.542 1.857-0.091 2.085 0.053 0.027 0.117 0.040 0.196 0.031 0.845-0.101 6.047-0.153 6.896-0.203 0.557-0.033 0.343-1.048 0.416-1.43 0.037-0.194-0.062-0.342-0.198-0.419zM1.417 11.734c0.006-0.358-0.086-0.568-0.086-0.568 0.622-0.025 5.597-0.032 6.219-0.033 0 0-0.090 0.252 0.015 0.46-0.599 0.036-5.551 0.079-6.148 0.14z" fill="#444444"></path>
<path d="M15.189 7.499c-0.068-0.058-0.158-0.096-0.273-0.096h-1.627c-0.026-0.551-0.037-1.103-0.069-1.653-0.014-0.248-0.194-0.385-0.387-0.413-0.041-0.013-0.085-0.022-0.136-0.022h-1.523c-0.195 0-0.321 0.106-0.38 0.244-0.085 0.070-0.143 0.177-0.142 0.322 0.005 0.564 0.059 1.123 0.125 1.682-0.462 0.034-0.925 0.068-1.387 0.101-0.076 0.005-0.141 0.028-0.196 0.060-0.185 0.050-0.326 0.22-0.326 0.419v0.087c0 0.072 0.020 0.139 0.051 0.199 0.033 0.426 0.036 0.853 0.036 1.281 0 0.229 0.146 0.363 0.317 0.405 0.048 0.018 0.1 0.030 0.161 0.030h1.485c0.011 0.479 0.036 0.957 0.038 1.436 0.001 0.225 0.142 0.358 0.31 0.403 0.049 0.020 0.105 0.032 0.168 0.032h1.479c0.128 0 0.225-0.047 0.295-0.116 0.004-0.004 0.008-0.008 0.013-0.012s0.007-0.008 0.011-0.012c0.070-0.070 0.117-0.167 0.117-0.295 0-0.508-0.004-1.016-0.026-1.523h1.636c0.258 0 0.396-0.185 0.417-0.384 0.038-0.061 0.062-0.135 0.062-0.225v-1.566c0-0.198-0.109-0.325-0.249-0.383zM14.568 9.187h-1.697c-0.248 0-0.386 0.17-0.415 0.36-0.016 0.048-0.024 0.101-0.020 0.162 0.030 0.478 0.039 0.957 0.042 1.436h-0.659c-0.012-0.435-0.034-0.87-0.036-1.305-0-0.042-0.007-0.079-0.016-0.115 0.007-0.223-0.132-0.451-0.42-0.451h-1.525c-0.003-0.257-0.012-0.513-0.029-0.769 0.46-0.034 0.92-0.068 1.38-0.101 0.041-0.003 0.078-0.012 0.113-0.023 0.227 0.012 0.445-0.123 0.409-0.412-0.074-0.594-0.141-1.187-0.164-1.784h0.837c0.022 0.522 0.033 1.045 0.066 1.566 0.002 0.032 0.007 0.061 0.014 0.089 0.001 0.217 0.141 0.433 0.421 0.433h1.697v0.914z" fill="#444444"></path>
</svg>
