<?xml version="1.0" encoding="utf-8"?>
<!-- Generated by IcoMoon.io -->
<!DOCTYPE svg PUBLIC "-//W3C//DTD SVG 1.1//EN" "http://www.w3.org/Graphics/SVG/1.1/DTD/svg11.dtd">
<svg version="1.1" xmlns="http://www.w3.org/2000/svg" xmlns:xlink="http://www.w3.org/1999/xlink" width="16" height="16" viewBox="0 0 16 16">
<path d="M8.568 7.576c-0.189 0-0.363 0.053-0.524 0.161s-0.299 0.245-0.415 0.415c-0.117 0.17-0.206 0.36-0.269 0.571s-0.094 0.417-0.094 0.618c0 0.208 0.043 0.377 0.128 0.51s0.231 0.198 0.439 0.198c0.088 0 0.183-0.027 0.283-0.080s0.198-0.124 0.292-0.212c0.094-0.088 0.185-0.189 0.274-0.302s0.167-0.233 0.236-0.358l0.236-1.303c-0.082-0.069-0.167-0.123-0.255-0.161s-0.198-0.056-0.33-0.056z" fill="#444444"></path>
<path d="M8.337 3.313c-3.032 0-5.49 2.458-5.49 5.489s2.458 5.49 5.49 5.49c3.032 0 5.489-2.458 5.489-5.49s-2.457-5.489-5.489-5.489zM11.848 10.19c-0.249 0.258-0.538 0.463-0.868 0.613s-0.685 0.227-1.062 0.227c-0.158 0-0.304-0.017-0.439-0.052s-0.249-0.093-0.34-0.175c-0.091-0.082-0.159-0.189-0.203-0.321s-0.057-0.296-0.037-0.491h-0.038c-0.094 0.132-0.197 0.261-0.307 0.387s-0.231 0.237-0.363 0.335c-0.132 0.098-0.277 0.175-0.434 0.231s-0.331 0.085-0.519 0.085c-0.151 0-0.296-0.033-0.434-0.099s-0.258-0.159-0.358-0.278-0.181-0.264-0.24-0.434c-0.060-0.17-0.090-0.358-0.090-0.566 0-0.39 0.063-0.769 0.189-1.137s0.297-0.694 0.514-0.977c0.217-0.283 0.469-0.511 0.755-0.684s0.59-0.259 0.911-0.259c0.22 0 0.406 0.033 0.557 0.099s0.289 0.152 0.415 0.26l0.292-0.302h0.661l-0.453 2.558c-0.050 0.296-0.052 0.51-0.005 0.642s0.152 0.198 0.316 0.198c0.163 0 0.324-0.038 0.482-0.113s0.298-0.192 0.425-0.349c0.125-0.157 0.228-0.355 0.307-0.594s0.118-0.523 0.118-0.85c0-0.472-0.079-0.875-0.236-1.208s-0.373-0.609-0.646-0.826c-0.274-0.217-0.596-0.376-0.968-0.477s-0.771-0.151-1.199-0.151c-0.491 0-0.947 0.088-1.368 0.264s-0.788 0.419-1.1 0.727c-0.311 0.308-0.555 0.675-0.732 1.1s-0.264 0.886-0.264 1.383c0 0.491 0.074 0.931 0.222 1.321s0.364 0.722 0.647 0.996c0.283 0.274 0.634 0.484 1.052 0.632s0.898 0.222 1.439 0.222c0.183 0 0.39-0.022 0.623-0.066s0.443-0.11 0.632-0.198l0.292 0.906c-0.258 0.126-0.521 0.214-0.788 0.264s-0.574 0.076-0.92 0.076c-0.61 0-1.175-0.088-1.694-0.264s-0.969-0.437-1.35-0.783c-0.381-0.346-0.678-0.776-0.892-1.288s-0.321-1.106-0.321-1.779c0-0.686 0.123-1.306 0.368-1.86s0.576-1.025 0.991-1.416c0.415-0.39 0.897-0.69 1.444-0.902 0.548-0.21 1.127-0.316 1.737-0.316 0.579 0 1.117 0.083 1.614 0.25s0.928 0.406 1.293 0.717c0.365 0.312 0.651 0.692 0.859 1.142s0.312 0.961 0.312 1.534c0 0.403-0.071 0.78-0.212 1.133s-0.337 0.657-0.585 0.915z" fill="#444444"></path>
</svg>
