<?xml version="1.0" encoding="utf-8"?>
<!-- Generated by IcoMoon.io -->
<!DOCTYPE svg PUBLIC "-//W3C//DTD SVG 1.1//EN" "http://www.w3.org/Graphics/SVG/1.1/DTD/svg11.dtd">
<svg version="1.1" xmlns="http://www.w3.org/2000/svg" xmlns:xlink="http://www.w3.org/1999/xlink" width="16" height="16" viewBox="0 0 16 16">
<path d="M6.481 2.506c-1.187 0.262-2.236 0.842-2.582 1.785-0.117 0.319 0.154 0.64 0.492 0.681 2.557 0.306 5.153 0.305 7.79-0.002 0.338-0.039 0.556-0.351 0.402-0.654-0.55-1.082-1.822-1.68-2.812-1.905-0.331-0.075-0.384-0.433-0.674-0.61-0.456-0.28-1.647-0.264-2.031 0.063-0.259 0.221-0.253 0.57-0.585 0.643z" fill="#444444"></path>
<path d="M4.624 5.412c-0.335-0.057-0.721-0.085-0.79 0.023-0.036 0.056-0.054 0.129-0.052 0.223 0.248 2.264 0.48 5.423 0.646 7.572 0.014 0.177 0.072 0.514 0.309 0.741 0.245 0.235 0.828 0.281 1.165 0.323 1.777 0.222 4.223 0.123 5.579-0.141 0.563-0.11 0.747-0.661 0.759-0.896 0.043-0.842 0.345-4.407 0.662-6.936 0.042-0.337 0.105-0.773-0.025-0.859-0.062-0.042-0.153-0.055-0.274-0.038-2.83 0.395-5.099 0.477-7.978-0.012zM6.769 12.399c0 0.218-0.304 0.396-0.615 0.396s-0.615-0.177-0.615-0.396v-5.542c0-0.218 0.304-0.396 0.615-0.396s0.615 0.177 0.615 0.396v5.542zM8.923 12.399c0 0.218-0.304 0.396-0.615 0.396s-0.615-0.177-0.615-0.396v-5.542c0-0.218 0.304-0.396 0.615-0.396s0.615 0.177 0.615 0.396v5.542zM11.077 12.399c0 0.218-0.304 0.396-0.615 0.396s-0.615-0.177-0.615-0.396v-5.542c0-0.218 0.304-0.396 0.615-0.396s0.615 0.177 0.615 0.396v5.542z" fill="#444444"></path>
</svg>
