<?xml version="1.0" encoding="utf-8"?>
<!-- Generated by IcoMoon.io -->
<!DOCTYPE svg PUBLIC "-//W3C//DTD SVG 1.1//EN" "http://www.w3.org/Graphics/SVG/1.1/DTD/svg11.dtd">
<svg version="1.1" xmlns="http://www.w3.org/2000/svg" xmlns:xlink="http://www.w3.org/1999/xlink" width="16" height="16" viewBox="0 0 16 16">
<path d="M13.592 1.821c0 0.891-0.722 1.612-1.612 1.612s-1.612-0.722-1.612-1.612c0-0.891 0.722-1.612 1.612-1.612s1.612 0.722 1.612 1.612z" fill="#444444"></path>
<path d="M15.385 8.325c-0.374-2.553-0.941-3.646-2.333-4.499-0.027-0.016-0.055-0.028-0.083-0.041-0.18-0.12-0.381-0.208-0.587-0.258l-0.402 0.404-0.389-0.409c-0.001 0-0.003 0-0.004 0.001-0.196 0.047-0.389 0.129-0.563 0.239-0.001 0-0.001 0-0.002 0-0.262 0.122-2.595 1.609-2.277 2.916 0.175 0.722 0.941 0.931 1.584 0.983v0.825c0 0.168 0.033 0.325 0.090 0.47-0.004 0.033-0.007 0.066-0.007 0.099l0 5.994c0 0.409 0.331 0.74 0.74 0.74s0.74-0.331 0.74-0.74l-0-5.144c0.029 0.002 0.059 0.004 0.088 0.004 0.006 0 0.012-0.001 0.017-0.001l-0 5.141c0 0.409 0.331 0.74 0.74 0.74s0.74-0.331 0.74-0.74l0-5.957c0.097-0.18 0.153-0.383 0.153-0.606v-2.156c0.2 0.5 0.371 1.187 0.516 2.175 0.046 0.311 0.313 0.535 0.619 0.535 0.030 0 0.061-0.002 0.091-0.007 0.342-0.050 0.579-0.368 0.529-0.71zM10.329 6.403c-0.171-0.019-0.278-0.047-0.34-0.070 0.051-0.125 0.178-0.291 0.34-0.466v0.535zM13.801 5.409l-1.195 2.596c-0.056 0.122-0.182 0.201-0.321 0.201-0.055 0-0.108-0.012-0.159-0.035l-1.083-0.499c0.023-0.001 0.045-0.002 0.066-0.003 0.097-0.004 0.187-0.032 0.267-0.075 0.003 0.042 0.026 0.081 0.067 0.099l0.692 0.319c0.042 0.019 0.086 0.029 0.13 0.029 0.031 0 0.062-0.005 0.092-0.014 0.076-0.024 0.136-0.077 0.169-0.148l1.103-2.395c0.033-0.071 0.034-0.15 0.003-0.224-0.029-0.070-0.085-0.127-0.156-0.159l-1.579-0.727c-0.15-0.068-0.325-0.009-0.391 0.134l-0.803 1.744c-0.027 0.060-0.001 0.13 0.058 0.157s0.129 0.001 0.157-0.058l0.803-1.745c0.011-0.024 0.047-0.032 0.078-0.018l1.579 0.727c0.017 0.008 0.030 0.021 0.037 0.036 0.003 0.009 0.006 0.021 0.001 0.034l-1.103 2.395c-0.006 0.013-0.018 0.019-0.027 0.022-0.016 0.005-0.034 0.004-0.051-0.004l-0.692-0.319c-0.003-0.001-0.006-0.001-0.009-0.002 0.114-0.119 0.182-0.282 0.175-0.459-0.014-0.345-0.309-0.615-0.652-0.599-0.248 0.011-0.444 0.007-0.6-0.004l0.967-2.1c0.056-0.122 0.182-0.201 0.321-0.201 0.055 0 0.108 0.012 0.159 0.035l0.046 0.021 0.027-0.179h0.007l0.031 0.209 1.6 0.737c0.184 0.085 0.268 0.297 0.187 0.473z" fill="#444444"></path>
<path d="M10 8.245l-0.263-0.226c-0.597-0.24-0.931-0.61-1.116-0.955l-1.047-0.896v1.935l-2.262-1.935v2.414h-1.515l-0.307-5.435h-2.35l-0.53 10.407h1.966v-2.467h1.311v2.467h6.197l-0.001-4.773c-0.050-0.175-0.076-0.354-0.081-0.536z" fill="#444444"></path>
<path d="M2.396 2.392c0.082-0.036 0.168-0.073 0.258-0.108s0.182-0.066 0.27-0.085c0.086-0.021 0.169-0.023 0.206-0.010 0.037 0.017 0.026 0.015 0.053 0.052 0.003 0.004 0.006 0.010 0.009 0.015l0.024 0.041 0.019 0.029 0.024 0.035c0.015 0.020 0.030 0.040 0.047 0.059 0.068 0.076 0.158 0.146 0.259 0.19s0.209 0.061 0.303 0.062c0.095 0.001 0.18-0.018 0.255-0.039 0.15-0.046 0.265-0.114 0.364-0.186s0.178-0.147 0.246-0.221c0.135-0.149 0.221-0.289 0.272-0.394 0.053-0.103 0.072-0.17 0.072-0.17s-0.067 0.020-0.172 0.059c-0.053 0.019-0.117 0.041-0.187 0.067-0.069 0.025-0.146 0.054-0.23 0.086-0.082 0.030-0.169 0.060-0.256 0.085s-0.175 0.045-0.248 0.050c-0.074 0.005-0.119-0.010-0.131-0.021-0.008-0.005-0.015-0.011-0.027-0.026-0.003-0.003-0.007-0.008-0.011-0.011l-0.002-0.003c-0.001-0.001-0.001 0-0.006-0.008l-0.024-0.037c-0.012-0.020-0.026-0.040-0.041-0.061-0.057-0.081-0.142-0.158-0.241-0.214s-0.212-0.084-0.312-0.087c-0.202-0.008-0.353 0.053-0.479 0.114-0.124 0.065-0.226 0.139-0.314 0.215s-0.162 0.153-0.225 0.228c-0.064 0.074-0.117 0.146-0.16 0.212-0.045 0.065-0.077 0.126-0.106 0.175-0.054 0.1-0.077 0.163-0.077 0.163s0.061-0.025 0.163-0.071c0.098-0.044 0.237-0.107 0.405-0.183z" fill="#444444"></path>
</svg>
