<?xml version="1.0" encoding="utf-8"?>
<!-- Generated by IcoMoon.io -->
<!DOCTYPE svg PUBLIC "-//W3C//DTD SVG 1.1//EN" "http://www.w3.org/Graphics/SVG/1.1/DTD/svg11.dtd">
<svg version="1.1" xmlns="http://www.w3.org/2000/svg" xmlns:xlink="http://www.w3.org/1999/xlink" width="19" height="16" viewBox="0 0 19 16">
<path d="M17.606 5.267c-0.608 0-1.101 0.493-1.101 1.099s0.493 1.099 1.101 1.099c0.606 0 1.099-0.493 1.099-1.099s-0.493-1.099-1.099-1.099zM1.807 5.267c-0.608 0-1.101 0.493-1.101 1.099s0.493 1.099 1.101 1.099c0.606 0 1.099-0.493 1.099-1.099s-0.493-1.099-1.099-1.099zM14.336 3.268c-0.903 0-1.634 0.734-1.634 1.636 0 0.901 0.731 1.634 1.634 1.634s1.636-0.733 1.636-1.634c0-0.901-0.735-1.636-1.636-1.636zM19.411 13.213h-1.864v-3.429c0-0.59-0.174-1.137-0.451-1.614 0.164-0.048 0.332-0.081 0.51-0.081 0.993 0 1.805 0.812 1.805 1.807v3.317zM5.075 3.268c-0.903 0-1.636 0.734-1.636 1.636 0 0.901 0.734 1.634 1.636 1.634 0.9 0 1.634-0.733 1.634-1.634s-0.734-1.636-1.634-1.636zM1.807 8.089c0.177 0 0.344 0.034 0.508 0.081-0.281 0.476-0.451 1.023-0.451 1.614v3.429h-1.864v-3.317c0-0.996 0.812-1.807 1.807-1.807zM9.704 0c-1.332 0-2.418 1.084-2.418 2.418s1.084 2.419 2.418 2.419 2.419-1.086 2.419-2.419c0.001-1.333-1.086-2.418-2.419-2.418zM16.949 14.489h-2.855v-5.218c0-0.718-0.189-1.385-0.496-1.983 0.233-0.069 0.479-0.119 0.736-0.119 1.44 0 2.614 1.172 2.614 2.614v4.705zM5.313 9.272v5.218h-2.851v-4.705c0-1.441 1.172-2.614 2.614-2.614 0.257 0 0.5 0.049 0.734 0.119-0.306 0.598-0.497 1.265-0.497 1.983zM5.912 16h7.584v-6.728c0-2.091-1.702-3.792-3.792-3.792-2.092 0-3.792 1.701-3.792 3.792v6.728z" fill="#444444"></path>
</svg>
