<?xml version="1.0" encoding="utf-8"?>
<!-- Generated by IcoMoon.io -->
<!DOCTYPE svg PUBLIC "-//W3C//DTD SVG 1.1//EN" "http://www.w3.org/Graphics/SVG/1.1/DTD/svg11.dtd">
<svg version="1.1" xmlns="http://www.w3.org/2000/svg" xmlns:xlink="http://www.w3.org/1999/xlink" width="16" height="16" viewBox="0 0 16 16">
<path d="M2.331 14.75h11.131c0.552 0 1-0.448 1-1v-11.25c0-0.552-0.448-1-1-1h-1.737v3.848h-7.894v-3.848h-1.499c-0.552 0-1 0.448-1 1v11.25c0 0.552 0.448 1 1 1zM3.533 8.51c0-0.552 0.448-1 1-1h6.767c0.552 0 1 0.448 1 1v3.99c0 0.552-0.448 1-1 1h-6.767c-0.552 0-1-0.448-1-1v-3.99z" fill="#444444"></path>
<path d="M5.668 12.259h4.497c0.465 0 0.842-0.377 0.842-0.842v-1.824c0-0.465-0.377-0.842-0.842-0.842h-4.497c-0.465 0-0.842 0.377-0.842 0.842v1.824c0 0.465 0.377 0.842 0.842 0.842z" fill="#444444"></path>
<path d="M8.73 2.5v1.125c0 0.552 0.392 1 0.875 1s0.875-0.448 0.875-1v-1.125c0-0.552-0.392-1-0.875-1s-0.875 0.448-0.875 1z" fill="#444444"></path>
</svg>
