<?xml version="1.0" encoding="utf-8"?>
<!-- Generated by IcoMoon.io -->
<!DOCTYPE svg PUBLIC "-//W3C//DTD SVG 1.1//EN" "http://www.w3.org/Graphics/SVG/1.1/DTD/svg11.dtd">
<svg version="1.1" xmlns="http://www.w3.org/2000/svg" xmlns:xlink="http://www.w3.org/1999/xlink" width="16" height="16" viewBox="0 0 16 16">
<path d="M11.162 3.7v-2.587c0-0.412-0.338-0.75-0.75-0.75h-9.25c-0.412 0-0.75 0.338-0.75 0.75v10.6c0 0.275 0.162 0.537 0.4 0.662l5.7 2.95c0.25 0.125 0.55-0.050 0.55-0.338v-2.875h3.35c0.412 0 0.75-0.338 0.75-0.75v-4.1h-1.5v2.975c0 0.213-0.162 0.375-0.375 0.375h-2.213v-6.362c0-0.275-0.162-0.538-0.4-0.663l-3.362-1.725h5.975c0.213 0 0.375 0.163 0.375 0.375v1.475h1.5z" fill="#444444"></path>
<path d="M13.088 2.475c0 0 2.438 2.437 2.438 2.437 0.313 0.313 0.313 0.775 0 1.088l-2.438 2.438c-0.313 0.313-0.787 0.325-1.1 0.012-0.3-0.3-0.262-0.8 0.025-1.1l1.1-1.088c0 0-4.262 0-4.262 0-0.213 0-0.425-0.088-0.563-0.25-0.35-0.375-0.262-1.037 0.188-1.287 0.113-0.063 0.25-0.1 0.375-0.1h4.262c0 0-1.088-1.087-1.1-1.087-0.287-0.288-0.325-0.8-0.025-1.087 0.3-0.3 0.787-0.288 1.1 0.025z" fill="#444444"></path>
</svg>
