<?xml version="1.0" encoding="utf-8"?>
<!-- Generated by IcoMoon.io -->
<!DOCTYPE svg PUBLIC "-//W3C//DTD SVG 1.1//EN" "http://www.w3.org/Graphics/SVG/1.1/DTD/svg11.dtd">
<svg version="1.1" xmlns="http://www.w3.org/2000/svg" xmlns:xlink="http://www.w3.org/1999/xlink" width="15" height="16" viewBox="0 0 15 16">
<path d="M14.13 1.141c-0.1 0-0.188 0.030-0.257 0.098-0.389 0.389-6.215 6.216-6.544 6.544l-0.003-0.003-0.003 0.010c-0.003 0.003-0.005 0.014-0.005 0.014s-0.863 2.026-0.722 2.167c0.14 0.142 2.176-0.715 2.176-0.715s6.042-6.041 6.56-6.56c0.445-0.446-0.594-1.556-1.202-1.556zM15.083 2.45l-6.313 6.313-0.963-0.963c1.154-1.153 5.959-5.96 6.304-6.306 0 0 0.005-0.003 0.019-0.003 0.245 0 0.765 0.412 0.924 0.795 0.040 0.095 0.038 0.154 0.030 0.163z" fill="#444444"></path>
<path d="M10.855 7.577v5.097h-2.444v2.245l-0.033 0.030h-7.328v-13.899h9.805v2.762l1.051-1.051v-2.236c0-0.291-0.236-0.525-0.525-0.525h-10.856c-0.29 0-0.525 0.234-0.525 0.525v14.949c0 0.29 0.235 0.525 0.525 0.525h8.055c0.129 0 0.254-0.048 0.35-0.133l2.801-2.507c0.111-0.1 0.175-0.242 0.175-0.391v-6.441l-1.051 1.050z" fill="#444444"></path>
<path d="M9.055 7.692c-0.033 0-0.067-0.014-0.093-0.038-0.052-0.052-0.052-0.135 0-0.186l5.822-5.822c0.051-0.052 0.135-0.052 0.186 0s0.052 0.135 0 0.186l-5.821 5.822c-0.026 0.025-0.060 0.038-0.093 0.038z" fill="#444444"></path>
</svg>
