<?xml version="1.0" encoding="utf-8"?>
<!-- Generated by IcoMoon.io -->
<!DOCTYPE svg PUBLIC "-//W3C//DTD SVG 1.1//EN" "http://www.w3.org/Graphics/SVG/1.1/DTD/svg11.dtd">
<svg version="1.1" xmlns="http://www.w3.org/2000/svg" xmlns:xlink="http://www.w3.org/1999/xlink" width="16" height="16" viewBox="0 0 16 16">
<path d="M8 0c-4.418 0-8 3.582-8 8s3.582 8 8 8 8-3.582 8-8c0-4.419-3.582-8-8-8zM11.98 6.204l0.006 0.255c0 2.604-1.981 5.604-5.604 5.604-1.112 0-2.147-0.326-3.019-0.885 0.154 0.018 0.311 0.028 0.47 0.028 0.923 0 1.772-0.315 2.446-0.843-0.862-0.016-1.589-0.586-1.84-1.368 0.121 0.023 0.243 0.034 0.371 0.034 0.18 0 0.354-0.023 0.519-0.068-0.901-0.182-1.58-0.977-1.58-1.931v-0.025c0.266 0.148 0.569 0.236 0.892 0.247-0.528-0.353-0.876-0.956-0.876-1.639 0-0.361 0.097-0.699 0.266-0.99 0.971 1.192 2.423 1.976 4.060 2.058-0.034-0.144-0.051-0.295-0.051-0.449 0-1.087 0.882-1.969 1.97-1.969 0.566 0 1.078 0.239 1.438 0.622 0.448-0.089 0.87-0.253 1.251-0.478-0.147 0.46-0.459 0.846-0.866 1.090 0.397-0.047 0.778-0.154 1.131-0.31-0.264 0.394-0.599 0.741-0.984 1.017z" fill="#444444"></path>
</svg>
